<mxfile host="app.diagrams.net" modified="2024-05-10T06:09:02.195Z" agent="Mozilla/5.0 (Windows NT 10.0; Win64; x64) AppleWebKit/537.36 (KHTML, like Gecko) Chrome/124.0.0.0 Safari/537.36" version="24.3.1" etag="lo8ANEo3gwAzAGYTOyhC" type="github">
  <diagram name="第 1 页" id="1-0aWTwYvezAbxgNUUUo">
    <mxGraphModel>
      <root>
        <mxCell id="0" />
        <mxCell id="1" parent="0" />
      </root>
    </mxGraphModel>
  </diagram>
</mxfile>
